<?xml version="1.0" encoding="utf-8"?><svg xml:space="preserve" viewBox="0 0 100 100" y="0" x="0" xmlns="http://www.w3.org/2000/svg" id="圖層_1" version="1.1" width="200px" height="200px" xmlns:xlink="http://www.w3.org/1999/xlink" style="width:100%;height:100%;background-size:initial;background-repeat-y:initial;background-repeat-x:initial;background-position-y:initial;background-position-x:initial;background-origin:initial;background-image:initial;background-color:rgb(241, 242, 243);background-clip:initial;background-attachment:initial;animation-play-state:paused" ><g class="ldl-scale" style="transform-origin:50% 50%;transform:rotate(0deg) scale(0.8, 0.8);animation-play-state:paused" ><path fill="#333" d="M85.592 86.317H12.658a3.533 3.533 0 0 1-3.533-3.533V27.516a3.533 3.533 0 0 1 3.533-3.533h72.934a3.533 3.533 0 0 1 3.533 3.533v55.268a3.533 3.533 0 0 1-3.533 3.533z" style="fill:rgb(221, 132, 55);animation-play-state:paused" ></path>
<path fill="#666" d="M41.933 18.936h-27.76V81.27h27.76c3.94.012 6.31-1.142 7.192 1.514v-59.81c-1.497-2.952-3.955-4.19-7.192-4.038z" style="fill:rgb(194, 66, 41);animation-play-state:paused" ></path>
<path fill="#666" d="M56.317 18.936h27.76V81.27h-27.76c-3.94.012-6.31-1.142-7.192 1.514v-59.81c1.497-2.952 3.955-4.19 7.192-4.038z" style="fill:rgb(194, 66, 41);animation-play-state:paused" ></path>
<path fill="#b3b3b3" d="M41.933 16.917h-27.76v62.334h27.76c3.94.012 6.31.877 7.192 3.533v-61.83c-1.497-2.951-3.955-4.189-7.192-4.037z" style="fill:rgb(73, 18, 18);animation-play-state:paused" ></path>
<path fill="#b3b3b3" d="M56.317 16.917h27.76v62.334h-27.76c-3.94.012-6.31.877-7.192 3.533v-61.83c1.497-2.951 3.955-4.189 7.192-4.037z" style="fill:rgb(73, 18, 18);animation-play-state:paused" ></path>
<path d="M28.41 70.503h-4.711v19.516l4.711-4.038 4.711 4.038V70.503z" fill="#c33737" style="fill:rgb(131, 26, 25);animation-play-state:paused" ></path>
<path fill="#e0e0e0" d="M41.933 14.898h-27.76v62.334h27.76c3.94.012 6.31 1.886 7.192 4.543V18.936c-1.497-2.952-3.955-4.19-7.192-4.038z" style="fill:rgb(41, 9, 8);animation-play-state:paused" ></path>
<path fill="#e0e0e0" d="M56.317 14.898h27.76v62.334h-27.76c-3.94.012-6.31 1.886-7.192 4.543V18.936c1.497-2.952 3.955-4.19 7.192-4.038z" style="fill:rgb(41, 9, 8);animation-play-state:paused" ></path>
<metadata xmlns:d="https://loading.io/stock/" style="animation-play-state:paused" ><d:name style="animation-play-state:paused" >book</d:name>
<d:tags style="animation-play-state:paused" >study,read,view,workbook,note,booklet,document,book,books</d:tags>
<d:license style="animation-play-state:paused" >pro</d:license>
<d:slug style="animation-play-state:paused" >clsotg</d:slug></metadata></g><!-- generated by https://loading.io/ --></svg>